<svg width="64" height="64" viewBox="0 0 64 64" fill="none" xmlns="http://www.w3.org/2000/svg">
<defs>
<linearGradient id="paint0_linear" x1="4.99022e-07" y1="6.83759" x2="35.4679" y2="64.271" gradientUnits="userSpaceOnUse">
<stop stop-color="white" stop-opacity="0.2"/>
<stop offset="1" stop-color="white" stop-opacity="0"/>
</linearGradient>
</defs>
<rect width="64" height="64" rx="32" fill="#1D2027"/>
<rect width="64" height="64" rx="32" fill="url(#paint0_linear)"/>
<path d="M41.6521 39.5805V40.674H21.787V39.5805L23.9739 37.3935V30.787C23.9739 27.3698 26.2065 24.3627 29.487 23.4059C29.487 23.3148 29.487 23.1781 29.487 23.087C29.487 22.4947 29.7148 21.9479 30.1248 21.5379C30.5349 21.1278 31.0816 20.9 31.6739 20.9C32.2663 20.9 32.813 21.1278 33.2231 21.5379C33.6331 21.9479 33.8609 22.4947 33.8609 23.087C33.8609 23.1781 33.8609 23.3148 33.8609 23.4059C37.1414 24.3627 39.3739 27.3698 39.3739 30.787V37.3935L41.6521 39.5805ZM33.9521 41.813C33.9521 42.4053 33.7242 42.9521 33.3142 43.3621C32.9041 43.7722 32.3574 44 31.7651 44C31.1728 44 30.626 43.7722 30.216 43.3621C29.8059 42.9521 29.5781 42.4053 29.5781 41.813H33.9521ZM40.2852 22.1757L38.7361 23.7248C40.6041 25.5929 41.6976 28.1444 41.6976 30.787H43.8846C43.8846 27.5521 42.5633 24.4538 40.2852 22.1757ZM19.6 30.787H21.787C21.787 28.1444 22.8349 25.5929 24.7485 23.7248L23.1994 22.1757C20.8757 24.4538 19.6 27.5521 19.6 30.787Z" fill="#6DBBDA"/>
</svg>
