<svg width="64" height="64" viewBox="0 0 64 64" fill="none" xmlns="http://www.w3.org/2000/svg">
<defs>
<linearGradient id="paint0_linear" x1="4.99022e-07" y1="6.83759" x2="35.4679" y2="64.271" gradientUnits="userSpaceOnUse">
<stop stop-color="white" stop-opacity="0.2"/>
<stop offset="1" stop-color="white" stop-opacity="0"/>
</linearGradient>
</defs>
<rect width="64" height="64" rx="32" fill="#1D2027"/>
<rect width="64" height="64" rx="32" fill="url(#paint0_linear)"/>
<path d="M32.5 31.37C31.6002 31.37 30.7372 31.003 30.1009 30.3498C29.4646 29.6965 29.1071 28.8105 29.1071 27.8867C29.1071 26.9628 29.4646 26.0768 30.1009 25.4236C30.7372 24.7703 31.6002 24.4033 32.5 24.4033C33.3998 24.4033 34.2628 24.7703 34.8991 25.4236C35.5354 26.0768 35.8929 26.9628 35.8929 27.8867C35.8929 28.3441 35.8051 28.7971 35.6346 29.2197C35.4641 29.6423 35.2142 30.0263 34.8991 30.3498C34.5841 30.6732 34.21 30.9298 33.7984 31.1048C33.3868 31.2799 32.9456 31.37 32.5 31.37ZM32.5 18.1333C29.9804 18.1333 27.5641 19.1609 25.7825 20.99C24.0009 22.8191 23 25.2999 23 27.8867C23 35.2017 32.5 46 32.5 46C32.5 46 42 35.2017 42 27.8867C42 25.2999 40.9991 22.8191 39.2175 20.99C37.4359 19.1609 35.0196 18.1333 32.5 18.1333Z" fill="#6DBBDA"/>
</svg>
