<svg width="200" height="32" viewBox="0 0 200 32" fill="none" xmlns="http://www.w3.org/2000/svg">
<path d="M130.343 30.9185H125.653V1.06998H130.343V13.8622H135.673V1.06998H140.449V30.9185H135.673V18.1263H130.343V30.9185Z" fill="#46A1D0"/>
<path d="M172.714 5.07842H170.104V27.3788H172.714V5.07842Z" fill="#46A1D0"/>
<path d="M199.024 17.9458H175.304V14.5114H196.551L199.024 17.9458Z" fill="#46A1D0"/>
<path d="M167.473 1.18616H135.923V31.2711H167.473V1.18616Z" fill="#46A1D0"/>
<path d="M143.605 22.8917C143.605 23.7973 143.783 24.4409 144.141 24.8222C144.522 25.1797 145.023 25.3584 145.642 25.3584C146.262 25.3584 146.751 25.1797 147.108 24.8222C147.49 24.4409 147.68 23.7973 147.68 22.8917V9.378C147.68 8.47232 147.49 7.84073 147.108 7.48323C146.751 7.10189 146.262 6.91122 145.642 6.91122C145.023 6.91122 144.522 7.10189 144.141 7.48323C143.783 7.84073 143.605 8.47232 143.605 9.378V22.8917ZM139.672 9.62825C139.672 7.6024 140.185 6.05321 141.209 4.9807C142.234 3.88435 143.712 3.33618 145.642 3.33618C147.573 3.33618 149.051 3.88435 150.075 4.9807C151.1 6.05321 151.613 7.6024 151.613 9.62825V22.6414C151.613 24.6673 151.1 26.2284 150.075 27.3247C149.051 28.3972 147.573 28.9335 145.642 28.9335C143.712 28.9335 142.234 28.3972 141.209 27.3247C140.185 26.2284 139.672 24.6673 139.672 22.6414V9.62825Z" fill="#11141C"/>
<path d="M153.024 3.62218H165.18V7.19722H161.068V28.6475H157.136V7.19722H153.024V3.62218Z" fill="#11141C"/>
<path d="M7.26221 1.07004C9.70695 1.07004 11.4694 1.63858 12.5497 2.77567C13.6583 3.91276 14.2127 5.6326 14.2127 7.93521V9.00123C14.2127 10.5363 13.971 11.8013 13.4878 12.7963C13.0045 13.7912 12.237 14.5303 11.1852 15.0136C12.4644 15.4968 13.3598 16.2928 13.8715 17.4015C14.4117 18.4817 14.6817 19.8178 14.6817 21.4097V23.8402C14.6817 26.1428 14.0847 27.9053 12.8908 29.1277C11.6969 30.3216 9.92015 30.9186 7.5607 30.9186H0.183838V1.07004H7.26221ZM4.87433 17.4867V26.6545H7.5607C8.35666 26.6545 8.95363 26.4413 9.35161 26.0149C9.77802 25.5885 9.99122 24.821 9.99122 23.7123V21.1112C9.99122 19.7183 9.74959 18.766 9.26633 18.2543C8.81149 17.7426 8.04396 17.4867 6.96373 17.4867H4.87433ZM4.87433 5.33412V13.2227H6.70788C7.58912 13.2227 8.27138 12.9952 8.75464 12.5404C9.26633 12.0856 9.52217 11.2612 9.52217 10.0672V8.40426C9.52217 7.32402 9.32318 6.54227 8.9252 6.05901C8.55565 5.57575 7.95868 5.33412 7.13429 5.33412H4.87433Z" fill="white"/>
<path d="M21.8134 24.0534C21.8134 25.1337 22.0266 25.9012 22.453 26.356C22.9078 26.7824 23.5048 26.9956 24.2439 26.9956C24.983 26.9956 25.5658 26.7824 25.9922 26.356C26.447 25.9012 26.6744 25.1337 26.6744 24.0534V7.93521C26.6744 6.85497 26.447 6.10165 25.9922 5.67525C25.5658 5.22041 24.983 4.99299 24.2439 4.99299C23.5048 4.99299 22.9078 5.22041 22.453 5.67525C22.0266 6.10165 21.8134 6.85497 21.8134 7.93521V24.0534ZM17.1229 8.23369C17.1229 5.81738 17.7341 3.96961 18.9565 2.69039C20.1788 1.38274 21.9413 0.728912 24.2439 0.728912C26.5465 0.728912 28.309 1.38274 29.5314 2.69039C30.7537 3.96961 31.3649 5.81738 31.3649 8.23369V23.7549C31.3649 26.1713 30.7537 28.0332 29.5314 29.3409C28.309 30.6201 26.5465 31.2597 24.2439 31.2597C21.9413 31.2597 20.1788 30.6201 18.9565 29.3409C17.7341 28.0332 17.1229 26.1713 17.1229 23.7549V8.23369Z" fill="white"/>
<path d="M38.7198 24.0534C38.7198 25.1337 38.933 25.9012 39.3594 26.356C39.8142 26.7824 40.4112 26.9956 41.1503 26.9956C41.8894 26.9956 42.4722 26.7824 42.8986 26.356C43.3534 25.9012 43.5809 25.1337 43.5809 24.0534V7.93521C43.5809 6.85497 43.3534 6.10165 42.8986 5.67525C42.4722 5.22041 41.8894 4.99299 41.1503 4.99299C40.4112 4.99299 39.8142 5.22041 39.3594 5.67525C38.933 6.10165 38.7198 6.85497 38.7198 7.93521V24.0534ZM34.0293 8.23369C34.0293 5.81738 34.6405 3.96961 35.8629 2.69039C37.0852 1.38274 38.8477 0.728912 41.1503 0.728912C43.4529 0.728912 45.2154 1.38274 46.4378 2.69039C47.6602 3.96961 48.2713 5.81738 48.2713 8.23369V23.7549C48.2713 26.1713 47.6602 28.0332 46.4378 29.3409C45.2154 30.6201 43.4529 31.2597 41.1503 31.2597C38.8477 31.2597 37.0852 30.6201 35.8629 29.3409C34.6405 28.0332 34.0293 26.1713 34.0293 23.7549V8.23369Z" fill="white"/>
<path d="M57.4598 19.0218L56.01 21.7508V30.9186H51.3195V1.07004H56.01V14.0755L62.1503 1.07004H66.8407L60.3167 14.374L66.8407 30.9186H62.0223L57.4598 19.0218Z" fill="white"/>
<path d="M78.9108 22.2625L82.1088 1.07004H88.6329V30.9186H84.1982V9.51292L80.9575 30.9186H76.5229L73.0263 9.8114V30.9186H68.9328V1.07004H75.4568L78.9108 22.2625Z" fill="white"/>
<path d="M96.4368 21.0259L90.5097 1.07004H95.4134L98.9952 14.6725L102.577 1.07004H107.054L101.127 21.0259V30.9186H96.4368V21.0259Z" fill="white"/>
<path d="M108.063 8.23369C108.063 5.81738 108.631 3.96961 109.768 2.69039C110.934 1.38274 112.668 0.728912 114.971 0.728912C117.273 0.728912 118.993 1.38274 120.13 2.69039C121.296 3.96961 121.878 5.81738 121.878 8.23369V9.17179H117.444V7.93521C117.444 6.85497 117.231 6.10165 116.804 5.67525C116.406 5.22041 115.838 4.99299 115.098 4.99299C114.359 4.99299 113.777 5.22041 113.35 5.67525C112.952 6.10165 112.753 6.85497 112.753 7.93521C112.753 8.95859 112.981 9.86826 113.435 10.6642C113.89 11.4318 114.459 12.1709 115.141 12.8815C115.823 13.5638 116.548 14.2603 117.316 14.9709C118.112 15.6532 118.851 16.4065 119.533 17.2309C120.215 18.0553 120.784 18.9934 121.239 20.0452C121.694 21.097 121.921 22.3336 121.921 23.7549C121.921 26.1713 121.324 28.0332 120.13 29.3409C118.965 30.6201 117.231 31.2597 114.928 31.2597C112.625 31.2597 110.877 30.6201 109.683 29.3409C108.518 28.0332 107.935 26.1713 107.935 23.7549V21.9214H112.369V24.0534C112.369 25.1337 112.583 25.887 113.009 26.3134C113.464 26.7398 114.061 26.953 114.8 26.953C115.539 26.953 116.122 26.7398 116.548 26.3134C117.003 25.887 117.231 25.1337 117.231 24.0534C117.231 23.0301 117.003 22.1346 116.548 21.3671C116.093 20.5711 115.525 19.832 114.843 19.1497C114.16 18.4391 113.421 17.7426 112.625 17.0603C111.858 16.3497 111.133 15.5821 110.451 14.7577C109.768 13.9333 109.2 12.9953 108.745 11.9434C108.29 10.8916 108.063 9.65505 108.063 8.23369Z" fill="white"/>
</svg>
